<svg width="48" height="32" viewBox="0 0 48 32" fill="none" xmlns="http://www.w3.org/2000/svg">
<path d="M45.3844 1.84996C44.8688 1.55644 44.2856 1.40209 43.6924 1.40209C43.0991 1.40209 42.5159 1.55644 42.0004 1.84996L34.8004 6.04996V5.13796C34.8004 3.78537 34.2631 2.48815 33.3067 1.53172C32.3501 0.575294 31.0529 0.0379639 29.7004 0.0379639H6.00039C4.64778 0.0379639 3.35058 0.575294 2.39414 1.53172C1.43771 2.48815 0.900391 3.78537 0.900391 5.13796V26.3899C0.900391 27.0597 1.03231 27.723 1.2886 28.3417C1.5449 28.9605 1.92057 29.5227 2.39414 29.9962C2.86772 30.4698 3.42995 30.8455 4.0487 31.1017C4.66746 31.3581 5.33064 31.4899 6.00039 31.4899H29.6764C30.3481 31.4932 31.0139 31.3636 31.6354 31.1086C32.257 30.8538 32.822 30.4786 33.2981 30.0048C33.7742 29.5309 34.1521 28.9675 34.4099 28.3473C34.6676 27.7269 34.8004 27.0618 34.8004 26.3899V25.4779L42.0004 29.6299C42.5221 29.931 43.1141 30.0883 43.7164 30.0859C44.315 30.0897 44.9036 29.9322 45.4204 29.6299C45.9442 29.3332 46.3793 28.9021 46.681 28.3812C46.9826 27.8601 47.1399 27.268 47.1364 26.6659V4.86196C47.145 4.24822 46.9865 3.64371 46.6778 3.11314C46.3693 2.58256 45.9221 2.14593 45.3844 1.84996ZM31.7764 7.7299V26.3899C31.7764 26.9469 31.5551 27.481 31.1612 27.8749C30.7675 28.2687 30.2333 28.4899 29.6764 28.4899H6.00039C5.44343 28.4899 4.90929 28.2687 4.51547 27.8749C4.12164 27.481 3.90039 26.9469 3.90039 26.3899V5.13796C3.90356 4.5831 4.1262 4.05204 4.5197 3.66079C4.91318 3.26956 5.44551 3.04996 6.00039 3.04996H29.6764C30.2333 3.04996 30.7675 3.27121 31.1612 3.66504C31.5551 4.05886 31.7764 4.59301 31.7764 5.14996V7.7299ZM44.1004 26.6659C44.1017 26.7402 44.0822 26.8134 44.044 26.877C44.0059 26.9406 43.9505 26.9923 43.8844 27.0259C43.8226 27.0682 43.7494 27.0909 43.6744 27.0909C43.5994 27.0909 43.5262 27.0682 43.4644 27.0259L34.8004 22.0099V9.5179L43.4884 4.50196C43.5502 4.45966 43.6234 4.43703 43.6984 4.43703C43.7734 4.43703 43.8466 4.45966 43.9084 4.50196C43.9745 4.5357 44.0299 4.58734 44.068 4.65099C44.1062 4.71465 44.1257 4.78774 44.1244 4.86196L44.1004 26.6659Z" fill="#1D1C1D"/>
</svg>
