<svg width="48" height="41" viewBox="0 0 48 41" fill="none" xmlns="http://www.w3.org/2000/svg">
<path d="M42.0004 8.34595H29.9164V5.15395C29.9164 3.80134 29.3791 2.50414 28.4227 1.5477C27.4661 0.59127 26.1689 0.0539551 24.8164 0.0539551H6.00039C4.64876 0.0571201 3.35339 0.595455 2.39765 1.55121C1.4419 2.50695 0.903559 3.80232 0.900391 5.15395V21.0779C0.900391 22.4306 1.43771 23.7278 2.39414 24.6842C3.35058 25.6406 4.64778 26.1779 6.00039 26.1779H7.92039V30.3059C7.92003 30.5924 8.00105 30.873 8.154 31.1153C8.30697 31.3574 8.52558 31.5512 8.78439 31.6739C9.04644 31.7889 9.33507 31.8296 9.61868 31.7915C9.90228 31.7534 10.17 31.638 10.3924 31.4579L16.7044 26.1779H18.0844V29.3579C18.0844 30.7137 18.623 32.0139 19.5817 32.9727C20.5403 33.9314 21.8405 34.4699 23.1964 34.4699H31.2964L37.6084 39.7619C37.8826 39.9866 38.2259 40.1096 38.5804 40.1099C38.8004 40.1096 39.0176 40.0604 39.2164 39.9659C39.4733 39.8441 39.6907 39.6522 39.8435 39.4122C39.9964 39.1724 40.0784 38.8943 40.0804 38.6099V34.4699H42.0004C43.3529 34.4699 44.6501 33.9326 45.6067 32.9762C46.5631 32.0198 47.1004 30.7226 47.1004 29.3699V13.4459C47.0972 12.0944 46.5589 10.799 45.6031 9.84321C44.6474 8.88745 43.352 8.34912 42.0004 8.34595ZM16.1524 23.1779C15.8026 23.1839 15.4648 23.3063 15.1924 23.5259L10.9204 27.1259V24.7259C10.9204 24.3281 10.7624 23.9466 10.481 23.6652C10.1997 23.384 9.81821 23.2259 9.42039 23.2259H6.00039C5.44343 23.2259 4.90929 23.0046 4.51547 22.6109C4.12164 22.217 3.90039 21.6828 3.90039 21.1259V5.15395C3.90354 4.59796 4.1258 4.06566 4.51895 3.67251C4.9121 3.27936 5.4444 3.0571 6.00039 3.05395H24.8164C25.3733 3.05395 25.9075 3.2752 26.3012 3.66903C26.6951 4.06285 26.9164 4.59699 26.9164 5.15395V21.0659C26.9164 21.3432 26.8618 21.6179 26.7556 21.8742C26.6495 22.1304 26.4938 22.3632 26.2978 22.5593C26.1017 22.7555 25.8688 22.911 25.6126 23.0172C25.3564 23.1233 25.0817 23.1779 24.8044 23.1779H16.1524ZM44.1004 29.3699C44.1004 29.9268 43.8791 30.461 43.4852 30.8549C43.0915 31.2486 42.5573 31.4699 42.0004 31.4699H38.5804C38.1826 31.4699 37.801 31.628 37.5197 31.9092C37.2385 32.1906 37.0804 32.5721 37.0804 32.9699V35.3699L32.8084 31.7699C32.5411 31.5399 32.2009 31.4124 31.8484 31.4099H23.1964C22.6363 31.4099 22.099 31.1874 21.703 30.7913C21.3068 30.3953 21.0844 29.8581 21.0844 29.2979V26.1779H24.8164C26.1689 26.1779 27.4661 25.6406 28.4227 24.6842C29.3791 23.7278 29.9164 22.4306 29.9164 21.0779V11.3579H42.0004C42.5564 11.361 43.0886 11.5833 43.4818 11.9765C43.8749 12.3696 44.0972 12.902 44.1004 13.4579V29.3699Z" fill="#1D1C1D"/>
</svg>
